<svg xmlns="http://www.w3.org/2000/svg" xmlns:xlink="http://www.w3.org/1999/xlink" width="1000" zoomAndPan="magnify" viewBox="0 0 750 749.999995" height="1000" preserveAspectRatio="xMidYMid meet" version="1.0"><defs><clipPath id="4d9ab5a6e1"><path d="M 125.5625 279.035156 L 253.335938 279.035156 L 253.335938 627.914062 L 125.5625 627.914062 Z M 125.5625 279.035156 " clip-rule="nonzero"/></clipPath><clipPath id="3de99bc6a0"><path d="M 189.449219 279.035156 C 154.167969 279.035156 125.5625 357.074219 125.5625 453.34375 C 125.5625 549.609375 154.167969 627.652344 189.449219 627.652344 C 224.734375 627.652344 253.335938 549.609375 253.335938 453.34375 C 253.335938 357.074219 224.734375 279.035156 189.449219 279.035156 Z M 189.449219 279.035156 " clip-rule="nonzero"/></clipPath><clipPath id="37812a48da"><path d="M 496.605469 279.035156 L 624.378906 279.035156 L 624.378906 627.914062 L 496.605469 627.914062 Z M 496.605469 279.035156 " clip-rule="nonzero"/></clipPath><clipPath id="bb4708af69"><path d="M 560.492188 279.035156 C 525.207031 279.035156 496.605469 357.074219 496.605469 453.34375 C 496.605469 549.609375 525.207031 627.652344 560.492188 627.652344 C 595.777344 627.652344 624.378906 549.609375 624.378906 453.34375 C 624.378906 357.074219 595.777344 279.035156 560.492188 279.035156 Z M 560.492188 279.035156 " clip-rule="nonzero"/></clipPath><clipPath id="be3c92025a"><path d="M 163.113281 546.207031 L 586.664062 546.207031 L 586.664062 664.578125 L 163.113281 664.578125 Z M 163.113281 546.207031 " clip-rule="nonzero"/></clipPath><clipPath id="e5eb0716ec"><path d="M 586.664062 605.394531 C 586.664062 572.707031 491.898438 546.207031 374.996094 546.207031 C 258.09375 546.207031 163.328125 572.707031 163.328125 605.394531 C 163.328125 638.082031 258.09375 664.578125 374.996094 664.578125 C 491.898438 664.578125 586.664062 638.082031 586.664062 605.394531 Z M 586.664062 605.394531 " clip-rule="nonzero"/></clipPath><clipPath id="88d5a8374a"><path d="M 100.695312 92 L 649.117188 92 L 649.117188 294.652344 L 100.695312 294.652344 Z M 100.695312 92 " clip-rule="nonzero"/></clipPath><clipPath id="344b3c9d1e"><path d="M 391.992188 97.753906 L 646.203125 282.3125 C 648.597656 284.050781 649.597656 287.128906 648.683594 289.9375 C 647.773438 292.75 645.152344 294.652344 642.199219 294.652344 L 107.800781 294.652344 C 104.847656 294.652344 102.226562 292.75 101.316406 289.9375 C 100.402344 287.128906 101.402344 284.050781 103.792969 282.3125 L 358.007812 97.753906 C 368.140625 90.398438 381.859375 90.398438 391.992188 97.753906 Z M 391.992188 97.753906 " clip-rule="nonzero"/></clipPath><clipPath id="215092d104"><path d="M 161.324219 253.054688 L 589 253.054688 L 589 627.652344 L 161.324219 627.652344 Z M 161.324219 253.054688 " clip-rule="nonzero"/></clipPath><clipPath id="42cdb3ca00"><path d="M 191.324219 253.054688 L 558.675781 253.054688 C 566.632812 253.054688 574.261719 256.214844 579.890625 261.84375 C 585.515625 267.46875 588.675781 275.097656 588.675781 283.054688 L 588.675781 597.652344 C 588.675781 605.609375 585.515625 613.238281 579.890625 618.863281 C 574.261719 624.492188 566.632812 627.652344 558.675781 627.652344 L 191.324219 627.652344 C 183.367188 627.652344 175.738281 624.492188 170.109375 618.863281 C 164.484375 613.238281 161.324219 605.609375 161.324219 597.652344 L 161.324219 283.054688 C 161.324219 275.097656 164.484375 267.46875 170.109375 261.84375 C 175.738281 256.214844 183.367188 253.054688 191.324219 253.054688 Z M 191.324219 253.054688 " clip-rule="nonzero"/></clipPath><clipPath id="cb5a2de4d9"><path d="M 275.191406 342.550781 L 474.214844 342.550781 L 474.214844 505.632812 L 275.191406 505.632812 Z M 275.191406 342.550781 " clip-rule="nonzero"/></clipPath><clipPath id="715cbdbf9f"><path d="M 382.058594 346.71875 L 472.988281 494.140625 C 474.421875 496.464844 474.488281 499.386719 473.15625 501.769531 C 471.824219 504.15625 469.308594 505.632812 466.578125 505.632812 L 283.367188 505.632812 C 280.632812 505.632812 278.117188 504.15625 276.785156 501.769531 C 275.457031 499.386719 275.519531 496.464844 276.953125 494.140625 L 367.882812 346.71875 C 369.402344 344.261719 372.082031 342.765625 374.972656 342.765625 C 377.859375 342.765625 380.542969 344.261719 382.058594 346.71875 Z M 382.058594 346.71875 " clip-rule="nonzero"/></clipPath></defs><g clip-path="url(#4d9ab5a6e1)"><g clip-path="url(#3de99bc6a0)"><path fill="#ff0033" d="M 125.5625 279.035156 L 253.335938 279.035156 L 253.335938 627.414062 L 125.5625 627.414062 Z M 125.5625 279.035156 " fill-opacity="1" fill-rule="nonzero"/></g></g><g clip-path="url(#37812a48da)"><g clip-path="url(#bb4708af69)"><path fill="#ff0033" d="M 496.605469 279.035156 L 624.378906 279.035156 L 624.378906 627.414062 L 496.605469 627.414062 Z M 496.605469 279.035156 " fill-opacity="1" fill-rule="nonzero"/></g></g><g clip-path="url(#be3c92025a)"><g clip-path="url(#e5eb0716ec)"><path fill="#ff0033" d="M 586.664062 546.207031 L 586.664062 664.578125 L 163.113281 664.578125 L 163.113281 546.207031 Z M 586.664062 546.207031 " fill-opacity="1" fill-rule="nonzero"/></g></g><g clip-path="url(#88d5a8374a)"><g clip-path="url(#344b3c9d1e)"><path fill="#ff0033" d="M 86.800781 85.417969 L 663.011719 85.417969 L 663.011719 294.652344 L 86.800781 294.652344 Z M 86.800781 85.417969 " fill-opacity="1" fill-rule="nonzero"/></g></g><g clip-path="url(#215092d104)"><g clip-path="url(#42cdb3ca00)"><path fill="#ff0033" d="M 161.324219 253.054688 L 588.597656 253.054688 L 588.597656 627.652344 L 161.324219 627.652344 Z M 161.324219 253.054688 " fill-opacity="1" fill-rule="nonzero"/></g></g><g clip-path="url(#cb5a2de4d9)"><g clip-path="url(#715cbdbf9f)"><path fill="#ffffff" d="M 269.867188 335.230469 L 480.207031 335.230469 L 480.207031 505.632812 L 269.867188 505.632812 Z M 269.867188 335.230469 " fill-opacity="1" fill-rule="nonzero"/></g></g></svg>